<?xml version="1.0" encoding="UTF-8" standalone="no"?>
<svg width="344px" height="156px" viewBox="0 0 344 156" version="1.1" xmlns="http://www.w3.org/2000/svg" xmlns:xlink="http://www.w3.org/1999/xlink">
    <!-- Generator: Sketch 50.2 (55047) - http://www.bohemiancoding.com/sketch -->
    <title>sprites-icon</title>
    <desc>Created with Sketch.</desc>
    <defs></defs>
    <g id="Page-1" stroke="none" stroke-width="1" fill="none" fill-rule="evenodd">
        <g id="Artboard-2" transform="translate(-557.000000, -627.000000)" fill-rule="nonzero">
            <g id="sprites-icon" transform="translate(557.000000, 627.000000)">
                <g id="baseline-reply-24px" transform="translate(9.000000, 7.500000) scale(-1, 1) translate(-9.000000, -7.500000) translate(1.000000, 1.000000)" stroke="#FF6900">
                    <path d="M6.06666667,3.46666667 L6.06666667,0 L0,6.06666667 L6.06666667,12.1333333 L6.06666667,8.58 C10.4,8.58 13.4333333,9.96666667 15.6,13 C14.7333333,8.66666667 12.1333333,4.33333333 6.06666667,3.46666667 Z" id="Shape"></path>
                </g>
                <g id="leader" transform="translate(23.000000, 2.000000)">
                    <path d="M47.1272727,38.7636364 C47.3454545,38.5454545 47.4181818,38.1818182 47.4181818,37.8909091 L46.6181818,30.6181818 C46.5454545,29.9636364 45.9636364,29.4545455 45.3090909,29.5272727 L37.7454545,30.3272727 C37.4545455,30.3272727 37.1636364,30.5454545 36.9454545,30.7636364 C36.7272727,30.9818182 36.6545455,31.3454545 36.6545455,31.6363636 C36.6545455,31.9272727 36.8727273,32.2181818 37.0909091,32.4363636 C37.3090909,32.6545455 37.6727273,32.7272727 37.9636364,32.7272727 L42.9818182,32.2181818 L42.8363636,32.3636364 L34.2545455,42.8363636 L34.1818182,42.7636364 L28.5090909,37.2363636 C28.2909091,37.0181818 28,36.8727273 27.7090909,36.8727273 L27.6363636,36.8727273 C27.2727273,36.8727273 26.9818182,37.0181818 26.7636364,37.3090909 L18.1090909,47.2 C17.8909091,47.4181818 17.8181818,47.7818182 17.8181818,48.0727273 C17.8181818,48.3636364 17.9636364,48.6545455 18.2545455,48.8727273 C18.4727273,49.0909091 18.7636364,49.1636364 19.1272727,49.1636364 C19.4181818,49.1636364 19.7818182,49.0181818 19.9272727,48.8 L27.7818182,39.8545455 L27.8545455,39.9272727 L33.5272727,45.4545455 C33.7454545,45.6727273 34.1090909,45.8181818 34.4,45.8181818 C34.7636364,45.8181818 35.0545455,45.6727273 35.2727273,45.3818182 L44.5818182,34.1090909 L45.0181818,38.1818182 C45.0909091,38.8363636 45.6727273,39.3454545 46.3272727,39.2727273 C46.6909091,39.1272727 46.9818182,38.9818182 47.1272727,38.7636364 Z" id="Shape" fill="#000000"></path>
                    <path d="M16.1454545,64.8 C16.1454545,64.7272727 15.7090909,59.2727273 8.8,59.2727273 C1.81818182,59.2727273 1.45454545,64.7272727 1.45454545,64.8 L1.45454545,66.4 C1.45454545,66.8363636 1.81818182,67.2 2.25454545,67.2 L15.3454545,67.2 C15.7818182,67.2 16.1454545,66.8363636 16.1454545,66.4 L16.1454545,64.8 Z" id="Shape" stroke="#000000" stroke-width="1.5"></path>
                    <path d="M8.65454545,57.9636364 C10.6909091,57.9636364 12.2909091,56.1454545 12.2909091,53.9636364 C12.2909091,51.7090909 10.6181818,49.9636364 8.65454545,49.9636364 C6.61818182,49.9636364 5.01818182,51.7818182 5.01818182,53.9636364 C4.94545455,56.1454545 6.61818182,57.9636364 8.65454545,57.9636364 Z" id="Shape" stroke="#000000" stroke-width="1.5"></path>
                    <path d="M64.8,64.8 C64.8,64.7272727 64.3636364,59.2727273 57.4545455,59.2727273 C50.4727273,59.2727273 50.1090909,64.8 50.1090909,64.8 L50.1090909,66.4 C50.1090909,66.8363636 50.4727273,67.2 50.9090909,67.2 L64,67.2 C64.4363636,67.2 64.8,66.8363636 64.8,66.4 L64.8,64.8 Z" id="Shape" stroke="#000000" stroke-width="1.5"></path>
                    <path d="M57.2363636,57.9636364 C59.2727273,57.9636364 60.8727273,56.1454545 60.8727273,53.9636364 C60.8727273,51.7090909 59.2,49.9636364 57.2363636,49.9636364 C55.2,49.9636364 53.6,51.7818182 53.6,53.9636364 C53.6,56.1454545 55.2,57.9636364 57.2363636,57.9636364 Z" id="Shape" stroke="#000000" stroke-width="1.5"></path>
                    <path d="M40.1454545,14.9090909 C40.1454545,14.8363636 39.7090909,9.38181818 32.8,9.38181818 C25.8181818,9.38181818 25.4545455,14.9090909 25.4545455,14.9090909 L25.4545455,16.5090909 C25.4545455,16.9454545 25.8181818,17.3090909 26.2545455,17.3090909 L39.3454545,17.3090909 C39.7818182,17.3090909 40.1454545,16.9454545 40.1454545,16.5090909 L40.1454545,14.9090909 Z" id="Shape" stroke="#000000" stroke-width="1.5"></path>
                    <path d="M32.5818182,8.07272727 C34.6181818,8.07272727 36.2181818,6.25454545 36.2181818,4.07272727 C36.2181818,1.89090909 34.6181818,0 32.5818182,0 C30.5454545,0 28.9454545,1.81818182 28.9454545,4 C28.9454545,6.18181818 30.6181818,8.07272727 32.5818182,8.07272727 Z" id="Shape" stroke="#000000" stroke-width="1.5"></path>
                    <path d="M21.6,10.1818182 C21.4545455,9.81818182 21.0909091,9.6 20.7272727,9.6 C20.5818182,9.6 20.4363636,9.6 20.3636364,9.67272727 C-6.61818182,21.5272727 1.81818182,48.8727273 1.89090909,49.1636364 C2.03636364,49.6727273 2.61818182,49.9636364 3.05454545,49.7454545 C3.27272727,49.6727273 3.49090909,49.5272727 3.63636364,49.3090909 C3.78181818,49.0909091 3.78181818,48.8 3.70909091,48.5818182 C3.70909091,48.5090909 1.6,42.0363636 2.76363636,34.1818182 C4.21818182,23.7090909 10.4,16.0727273 21.0909091,11.4181818 C21.6,11.2 21.8181818,10.6909091 21.6,10.1818182 Z" id="Shape" fill="#000000"></path>
                    <path d="M46.2545455,9.67272727 C46.1090909,9.6 46.0363636,9.6 45.8909091,9.6 C45.7454545,9.6 45.6727273,9.6 45.5272727,9.67272727 C45.3090909,9.74545455 45.0909091,9.96363636 45.0181818,10.1818182 C44.9454545,10.4 44.9454545,10.6909091 45.0181818,10.9090909 C45.0909091,11.1272727 45.3090909,11.3454545 45.5272727,11.4181818 C70.9090909,22.5454545 63.2,47.5636364 62.9090909,48.5818182 C62.7636364,49.0909091 63.0545455,49.6 63.4909091,49.7454545 C64,49.8909091 64.5090909,49.6 64.6545455,49.1636364 C64.8,48.8727273 73.3090909,21.5272727 46.2545455,9.67272727 Z" id="Shape" fill="#000000"></path>
                    <path d="M45.6,67.0545455 C32.3636364,72.6545455 21.5272727,67.1272727 21.3818182,67.0545455 C21.2363636,66.9818182 21.0909091,66.9818182 20.9454545,66.9818182 C20.8727273,66.9818182 20.7272727,66.9818182 20.6545455,67.0545455 C20.4363636,67.1272727 20.2181818,67.2727273 20.0727273,67.4909091 C19.9272727,67.7090909 19.9272727,68 20,68.2181818 C20.0727273,68.4363636 20.2181818,68.6545455 20.4363636,68.8 C20.6545455,68.9454545 25.7454545,71.4909091 33.2363636,71.4909091 C37.6727273,71.4909091 42.0363636,70.6181818 46.2545455,68.8 C46.7636364,68.5818182 46.9818182,68.0727273 46.7636364,67.5636364 C46.6909091,67.0545455 46.1090909,66.8363636 45.6,67.0545455 Z" id="Shape" fill="#000000"></path>
                </g>
                <g id="Group-3" transform="translate(101.000000, 2.000000)" stroke="#000000" stroke-width="3">
                    <path d="M59.7798991,61.3359991 C59.7798991,59.4267774 58.4350458,54.7146579 55.6054217,50.7214501 C50.9010009,44.0825011 43.0268098,40.0967994 31.0606995,40.0967994 C18.9796209,40.0967994 11.0822311,44.1249983 6.410267,50.8244184 C4.77982824,53.1624061 3.66330386,55.6729342 2.96987061,58.1825022 C2.7279813,59.0579111 2.5566247,59.8679605 2.44395236,60.5901495 C2.37828877,61.0110294 2.34711209,61.299984 2.34149999,61.3359991 L2.34149999,67.918399 C2.34149999,68.8851718 3.16592709,69.7095989 4.13269994,69.7095989 L57.9886991,69.7095989 C58.955472,69.7095989 59.7798991,68.8851718 59.7798991,67.918399 L59.7798991,61.3359991 Z" id="Shape"></path>
                    <path d="M30.1630996,31.7111995 C37.6001746,31.7111995 43.6230993,25.0190609 43.6230993,16.7551998 C43.6230993,8.42607163 37.5416706,1.5 30.1630996,1.5 C22.7260245,1.5 16.7030998,8.19213857 16.7030998,16.4559998 C16.7030998,24.6645049 22.9763766,31.7111995 30.1630996,31.7111995 Z" id="Shape"></path>
                </g>
                <g id="aim" transform="translate(170.000000, 9.000000)" fill="#010101">
                    <g id="Group">
                        <path d="M70.4347826,39.1304348 C70.1217391,38.3478261 69.3391304,37.8782609 68.4,38.1913043 L59.6347826,41.0086957 L53.8434783,38.0347826 L59.6347826,36.1565217 C60.4173913,35.8434783 60.8869565,35.0608696 60.573913,34.1217391 C60.2608696,33.3391304 59.4782609,32.8695652 58.5391304,33.1826087 L49.773913,36 L48.2086957,35.2173913 C49.4608696,32.2434783 50.2434783,28.8 50.2434783,25.3565217 C50.2434783,11.5826087 38.973913,0.313043478 25.2,0.313043478 C11.426087,0.313043478 0.156521739,11.5826087 0.156521739,25.3565217 C0.156521739,39.1304348 11.426087,50.4 25.2,50.4 C34.4347826,50.4 42.4173913,45.3913043 46.8,38.0347826 L48.3652174,38.8173913 L51.1826087,47.5826087 C51.4956522,48.3652174 52.2782609,48.8347826 53.2173913,48.5217391 C54,48.2086957 54.4695652,47.426087 54.3130435,46.4869565 L52.4347826,40.6956522 L58.226087,43.6695652 L61.0434783,52.4347826 C61.3565217,53.2173913 62.1391304,53.6869565 63.0782609,53.373913 C63.8608696,53.0608696 64.3304348,52.2782609 64.173913,51.3391304 L62.2956522,45.5478261 L64.3304348,46.6434783 C64.4869565,46.8 64.8,46.8 65.1130435,46.8 C65.7391304,46.8 66.2086957,46.4869565 66.5217391,46.0173913 C66.9913043,45.2347826 66.6782609,44.2956522 65.8956522,43.9826087 L63.8608696,42.8869565 L69.6521739,41.0086957 C70.1217391,40.8521739 70.5913043,39.9130435 70.4347826,39.1304348 Z M25.3565217,47.1130435 C13.3043478,47.1130435 3.44347826,37.2521739 3.44347826,25.2 C3.44347826,13.1478261 13.3043478,3.28695652 25.3565217,3.28695652 C37.4086957,3.28695652 47.2695652,13.1478261 47.2695652,25.2 C47.2695652,28.173913 46.6434783,30.9913043 45.5478261,33.6521739 L41.4782609,31.4608696 C42.2608696,29.426087 42.7304348,27.3913043 42.7304348,25.0434783 C42.7304348,15.4956522 34.9043478,7.66956522 25.3565217,7.66956522 C15.8086957,7.66956522 7.9826087,15.4956522 7.9826087,25.0434783 C7.9826087,34.5913043 15.8086957,42.4173913 25.3565217,42.4173913 C31.6173913,42.4173913 37.0956522,39.1304348 40.0695652,34.1217391 L44.1391304,36.1565217 C40.3826087,42.7304348 33.3391304,47.1130435 25.3565217,47.1130435 Z M32.2434783,17.373913 L18,19.5652174 C16.9043478,19.7217391 16.4347826,20.8173913 16.9043478,21.7565217 L23.3217391,34.5913043 C23.6347826,35.373913 24.573913,35.6869565 25.3565217,35.2173913 C26.1391304,34.9043478 26.4521739,33.9652174 25.9826087,33.1826087 L21.7565217,24.573913 L37.2521739,32.5565217 C34.7478261,36.4695652 30.3652174,39.1304348 25.3565217,39.1304348 C17.5304348,39.1304348 11.1130435,32.7130435 11.1130435,24.8869565 C11.1130435,17.0608696 17.5304348,10.6434783 25.3565217,10.6434783 C33.1826087,10.6434783 39.6,17.0608696 39.6,24.8869565 C39.6,26.6086957 39.2869565,28.3304348 38.6608696,29.7391304 L23.1652174,21.7565217 L32.7130435,20.3478261 C33.4956522,20.1913043 34.1217391,19.4086957 33.9652174,18.626087 C33.9652174,17.8434783 33.1826087,17.373913 32.2434783,17.373913 Z" id="Shape"></path>
                    </g>
                </g>
                <g id="infor" transform="translate(251.000000, 2.000000)" fill="#000000">
                    <g id="Group" transform="translate(0.000000, 0.637820)">
                        <path d="M1.60345057,0.334392468 C0.733678144,0.417754555 -0.00376908674,1.24488272 -6.25201011e-07,2.13292726 L-6.25201011e-07,74.0742652 C0.000113490184,75.015978 0.842947605,75.8727101 1.7693248,75.8728 L53.0797612,75.8728 C54.0061392,75.8727101 54.8489725,75.015978 54.8490866,74.0742652 L54.8490866,59.6578398 C55.0369948,59.5137771 55.2476474,59.3877898 55.4296464,59.2363531 L65.9903087,69.9432106 C66.6442925,70.6266538 67.857293,70.6317797 68.5168242,69.9540018 C69.1763554,69.2761341 69.1579182,68.0433284 68.4784231,67.3861438 L57.9454076,56.6792863 C60.4424548,53.5778029 61.9263892,49.6058288 61.9263892,45.2978883 C61.9263892,39.4378123 59.1340945,34.2522408 54.8490875,30.9658411 L54.8490875,18.3199023 C54.8527144,17.8410784 54.6587704,17.3638821 54.3238197,17.0272054 L38.39989,0.840221387 C38.0706636,0.516494116 37.6138721,0.33076842 37.1558333,0.334392468 C25.3089694,0.334392468 13.4384358,0.334392468 1.60345057,0.334392468 Z M2.69250523,3.02669231 L35.0019255,3.02669231 L35.0019255,18.7189815 C35.0020206,19.6856 35.8815089,20.5650431 36.8481782,20.5651354 L52.5413249,20.5651354 L52.5413249,28.5843662 C50.2798169,27.5935538 47.7778151,27.0266738 45.1563145,27.0266738 C39.5703883,27.0266738 34.5545203,29.55164 31.1651822,33.4882031 C24.3909338,33.4882031 17.5890698,33.4882031 10.8275563,33.4882031 C9.86360185,33.5374031 9.03029785,34.4564369 9.07549169,35.4205262 C9.12068554,36.3846154 10.0363142,37.2216615 11.0006415,37.1804923 L28.68428,37.1804923 C27.6763474,39.1625231 27.0123818,41.3315692 26.7803323,43.6421231 C21.4681769,43.6421231 16.1267877,43.6421231 10.8275563,43.6421231 C9.85634646,43.6808923 9.00966246,44.6044308 9.05517569,45.5753231 C9.10068338,46.5462154 10.0300575,47.3864923 11.0006415,47.3343385 L26.7803323,47.3343385 C27.0089471,49.6460923 27.6788868,51.812 28.68428,53.7959692 C22.7372443,53.7959692 16.7617603,53.7959692 10.8275563,53.7959692 C9.86085846,53.8412 9.02253015,54.7619692 9.067844,55.7286154 C9.11315785,56.6952615 10.0339446,57.5336 11.0006415,57.4882769 L31.1363351,57.4882769 C34.3335412,61.2178769 38.986424,63.6840615 44.2043406,63.9497231 C33.0829695,63.9497231 21.9364852,63.9497231 10.8275563,63.9497231 C9.86085846,63.9949538 9.02253015,64.9158154 9.067844,65.8824615 C9.11315785,66.8491077 10.0339446,67.6873538 11.0006415,67.6420308 L44.2331886,67.6420308 C45.2085255,67.6558769 46.1055458,66.7712923 46.1055458,65.7959692 C46.1055458,64.8205538 45.2085255,63.9360615 44.2331886,63.9497231 C44.5378695,63.9644923 44.8479902,63.9497231 45.1563145,63.9497231 C47.7778142,63.9497231 50.2798169,63.4116615 52.5413249,62.4208308 L52.5413249,73.1804923 L2.69250523,73.1804923 L2.69250523,3.02669231 Z M37.6944308,4.69976923 L50.8681594,16.8728369 L37.6944308,16.8728369 L37.6944308,4.69976923 Z M44.6563144,29.7189723 C53.1123109,29.7189723 59.9263354,36.5326567 59.9263354,44.9881843 C59.9263354,53.4438073 53.1123147,60.2574154 44.6563144,60.2574154 C36.2003161,60.2574154 29.3862945,53.4438073 29.3862945,44.9881843 C29.3862945,36.5326567 36.2003199,29.7189723 44.6563144,29.7189723 Z M44.9543812,35.3055108 C44.0471812,35.4051938 43.29044,36.2681231 43.3100618,37.1804923 L43.3100618,39.0267385 C43.2962711,40.0020615 44.1808215,40.8991077 45.1563145,40.8991077 C46.1318083,40.8991077 47.0163569,40.0020615 47.0025671,39.0267385 L47.0025671,37.1804923 C47.0251178,36.1332615 45.9956535,35.1908185 44.9543812,35.3055108 Z M44.9543812,43.6132308 C44.0471757,43.7129231 43.2904308,44.5758154 43.3100618,45.4881846 L43.3100618,53.7959692 C43.2962711,54.7712923 44.1808215,55.6683385 45.1563145,55.6683385 C46.1318083,55.6683385 47.0163569,54.7712923 47.0025671,53.7959692 L47.0025671,45.4881846 C47.0251271,44.4409538 45.99566,43.4984923 44.9543812,43.6132308 Z" id="Shape"></path>
                    </g>
                </g>
                <path d="M72,89.9221273 C71.2638877,90.2483043 70.4740498,90.4695138 69.6441792,90.5682722 C70.4915335,90.060853 71.140162,89.2560151 71.4475808,88.2999351 C70.6527429,88.7698379 69.7753885,89.1110476 68.8405504,89.2960152 C68.0919544,88.4974191 67.0271487,88 65.8461011,88 C63.5802804,88 61.7431205,89.8371599 61.7431205,92.1017387 C61.7431205,92.4229157 61.7793624,92.736609 61.8493625,93.0365769 C58.4400105,92.8653347 55.4168356,91.2319007 53.3934663,88.7498378 C53.0397729,89.3547408 52.8385635,90.0595785 52.8385635,90.8119654 C52.8385635,92.2354644 53.5634339,93.4914796 54.6632397,94.2263174 C53.9908529,94.2038337 53.3584663,94.018866 52.8048379,93.7114146 L52.8048379,93.7626565 C52.8048379,95.7497839 54.2195788,97.408218 56.0954642,97.7856696 C55.7517708,97.8781534 55.3893519,97.9293953 55.0144167,97.9293953 C54.7494816,97.9293953 54.4932721,97.9031534 54.2420625,97.8531534 C54.764449,99.4841037 56.27919,100.670119 58.0738661,100.702635 C56.6703671,101.802441 54.900691,102.456069 52.9785637,102.456069 C52.6473867,102.456069 52.321177,102.436069 52,102.399828 C53.815918,103.565875 55.9717712,104.245745 58.2888338,104.245745 C65.8361664,104.245745 69.9616633,97.9943954 69.9616633,92.572916 L69.9479051,92.0417713 C70.7539849,91.4668357 71.451339,90.7444816 72,89.9221273 Z" id="Shape" fill="#3B4044"></path>
                <path d="M29.414486,86 C30.7247885,86 31.8281848,87.1033962 31.8281848,88.4136988 C31.8281848,89.7929441 30.6558067,90.8618884 29.414486,90.8273975 C28.1386743,90.8618884 27.0007872,89.7929441 27.0007872,88.4136988 C26.9662963,87.0689053 28.0697316,86 29.414486,86 Z M30.7592794,105.654421 L28.0007498,105.654421 C27.6214671,105.654421 27.3111272,105.344081 27.3111272,104.964798 L27.3111272,92.8963045 C27.3111272,92.5170218 27.5869762,92.2066819 27.9662589,92.2066819 L30.7592404,92.2066819 C31.1385231,92.2066819 31.448863,92.5170218 31.448863,92.8963045 L31.448863,104.999289 C31.4489021,105.344081 31.1385621,105.654421 30.7592794,105.654421 Z M46.965548,96.4133995 L47,96.4133995 L47,105.30959 C47,105.447515 46.793094,105.654421 46.655169,105.654421 L43.207017,105.654421 C43.069092,105.654421 42.862186,105.447515 42.862186,105.30959 L42.862186,97.8960784 C42.862186,97.2409467 42.689771,96.6547577 42.275997,96.2409841 C41.827733,95.7927196 41.241544,95.5513614 40.586412,95.5513614 C39.3106,95.5858133 38.345128,96.6547577 38.345128,97.9305693 L38.345128,105.378611 C38.345128,105.516536 38.138222,105.65446 38.000298,105.65446 L34.207354,105.65446 C34.069429,105.65446 33.862523,105.516536 33.862523,105.378611 L33.862523,92.5170218 C33.862523,92.3446064 34.069429,92.2066819 34.207354,92.2066819 L37.655506,92.2066819 C37.79343,92.2066819 38.000337,92.4135882 38.000337,92.5515127 L38.000337,93.930758 C38.000337,93.930758 38.103809,93.8272853 38.345168,93.5859272 C39.069281,92.5169828 40.414075,91.861851 41.79332,91.861851 L42.517433,91.861851 C45.069057,91.861851 46.965548,93.8617762 46.965548,96.4133995 Z" id="Combined-Shape" fill="#3B4044"></path>
                <path d="M17.4058342,86.0041613 L14.8122822,86 C11.8985154,86 10.0155114,87.9318997 10.0155114,90.922027 L10.0155114,93.191411 L7.4078108,93.191411 C7.1824745,93.191411 7,93.3740936 7,93.5994299 L7,96.8875087 C7,97.112845 7.1826826,97.2953195 7.4078108,97.2953195 L10.0155114,97.2953195 L10.0155114,105.592189 C10.0155114,105.817526 10.1979859,106 10.4233222,106 L13.8256297,106 C14.0509659,106 14.2334405,105.817317 14.2334405,105.592189 L14.2334405,97.2953195 L17.2824506,97.2953195 C17.5077869,97.2953195 17.6902614,97.112845 17.6902614,96.8875087 L17.6915098,93.5994299 C17.6915098,93.4912352 17.64844,93.3876179 17.5720795,93.3110494 C17.495719,93.2344808 17.3916857,93.191411 17.2834909,93.191411 L14.2334405,93.191411 L14.2334405,91.2676259 C14.2334405,90.3429772 14.4537832,89.8735786 15.6582816,89.8735786 L17.4054181,89.8729544 C17.6305463,89.8729544 17.8130208,89.6902718 17.8130208,89.4651436 L17.8130208,86.4119722 C17.8130208,86.187052 17.6307543,86.0045775 17.4058342,86.0041613 Z" id="Shape" fill="#3B4044"></path>
            </g>
        </g>
    </g>
</svg>